{
	"asset":{
		"generator":"Khronos glTF Blender I/O v4.0.44",
		"version":"2.0"
	},
	"extensionsUsed":[
		"KHR_materials_clearcoat",
		"KHR_materials_specular",
		"KHR_materials_ior"
	],
	"scene":0,
	"scenes":[
		{
			"name":"Scene",
			"nodes":[
				0
			]
		}
	],
	"nodes":[
		{
			"mesh":0,
			"name":"Cube.001",
			"rotation":[
				0,
				1,
				0,
				0
			],
			"scale":[
				-11.893978118896484,
				-0.3365529775619507,
				-3.0101189613342285
			],
			"translation":[
				0.012584388256072998,
				0.07573312520980835,
				-0.8429008722305298
			]
		}
	],
	"materials":[
		{
			"doubleSided":true,
			"extensions":{
				"KHR_materials_clearcoat":{
					"clearcoatFactor":0.006818181835114956,
					"clearcoatRoughnessFactor":0
				},
				"KHR_materials_specular":{
					"specularColorFactor":[
						0.9475090503692627,
						1.0,
						0.8966616988182068
					]
				},
				"KHR_materials_ior":{
					"ior":1.0500001907348633
				}
			},
			"name":"Metal Look",
			"pbrMetallicRoughness":{
				"baseColorFactor":[
					0.4761068522930145,
					0.5871948599815369,
					0.7999992966651917,
					1
				],
				"metallicFactor":0.9318182468414307,
				"roughnessFactor":0.20454545319080353
			}
		}
	],
	"meshes":[
		{
			"name":"Cube.003",
			"primitives":[
				{
					"attributes":{
						"POSITION":0,
						"NORMAL":1,
						"TEXCOORD_0":2
					},
					"indices":3,
					"material":0
				}
			]
		}
	],
	"accessors":[
		{
			"bufferView":0,
			"componentType":5126,
			"count":577,
			"max":[
				1.7451860904693604,
				6.058984756469727,
				11.137069702148438
			],
			"min":[
				-1.2570595741271973,
				-81.61865997314453,
				-13.057077407836914
			],
			"type":"VEC3"
		},
		{
			"bufferView":1,
			"componentType":5126,
			"count":577,
			"type":"VEC3"
		},
		{
			"bufferView":2,
			"componentType":5126,
			"count":577,
			"type":"VEC2"
		},
		{
			"bufferView":3,
			"componentType":5123,
			"count":942,
			"type":"SCALAR"
		}
	],
	"bufferViews":[
		{
			"buffer":0,
			"byteLength":6924,
			"byteOffset":0,
			"target":34962
		},
		{
			"buffer":0,
			"byteLength":6924,
			"byteOffset":6924,
			"target":34962
		},
		{
			"buffer":0,
			"byteLength":4616,
			"byteOffset":13848,
			"target":34962
		},
		{
			"buffer":0,
			"byteLength":1884,
			"byteOffset":18464,
			"target":34963
		}
	],
	"buffers":[
		{
			"byteLength":20348,
			"uri":"scifi.bin"
		}
	]
}
